<?xml version="1.0" standalone="no"?>
<!DOCTYPE svg PUBLIC "-//W3C//DTD SVG 20010904//EN"
 "http://www.w3.org/TR/2001/REC-SVG-20010904/DTD/svg10.dtd">
<svg version="1.0" xmlns="http://www.w3.org/2000/svg"
 width="1200.000000pt" height="1200.000000pt" viewBox="0 0 1200.000000 1200.000000"
 preserveAspectRatio="xMidYMid meet">
<metadata>
Created by potrace 1.16, written by Peter Selinger 2001-2019
</metadata>
<g transform="translate(0.000000,1200.000000) scale(0.100000,-0.100000)"
fill="#000000" stroke="none">
<path d="M11978 6013 l-3 -5988 -5988 -3 c-3983 -1 -5987 -5 -5987 -12 0 -7
2004 -9 5997 -8 l5998 3 3 5998 c1 3993 -1 5997 -8 5997 -7 0 -11 -2004 -12
-5987z"/>
<path d="M5499 7653 c-14 -16 -38 -54 -53 -85 -15 -32 -31 -60 -36 -63 -5 -3
-23 -35 -40 -70 -17 -35 -35 -67 -40 -70 -5 -3 -23 -35 -40 -70 -17 -35 -35
-67 -40 -70 -5 -3 -23 -35 -40 -70 -17 -35 -36 -70 -43 -77 -7 -7 -27 -43 -46
-80 -19 -38 -38 -68 -42 -68 -5 0 -9 -9 -9 -19 0 -11 -3 -21 -7 -23 -7 -3 -37
-55 -67 -115 -6 -13 -14 -23 -18 -23 -5 0 -8 -9 -8 -20 0 -11 -3 -20 -7 -20
-9 0 -33 -48 -33 -65 0 -6 -9 -17 -20 -25 -11 -8 -20 -22 -20 -32 0 -10 -4
-18 -10 -18 -5 0 -10 -9 -10 -20 0 -11 -4 -20 -10 -20 -5 0 -10 -7 -10 -15 0
-9 -9 -25 -20 -37 -11 -12 -20 -28 -20 -35 0 -7 -4 -13 -10 -13 -5 0 -10 -9
-10 -20 0 -11 -4 -20 -9 -20 -5 0 -25 -33 -46 -72 -40 -78 -47 -92 -85 -153
-14 -22 -32 -53 -40 -70 -8 -16 -25 -46 -38 -65 -13 -19 -32 -54 -43 -77 -10
-23 -23 -44 -29 -48 -5 -3 -23 -35 -40 -70 -17 -35 -35 -67 -40 -70 -5 -3 -27
-44 -50 -90 -23 -46 -45 -87 -50 -90 -5 -3 -23 -35 -40 -70 -17 -35 -35 -67
-40 -70 -6 -4 -19 -26 -30 -50 -11 -24 -24 -46 -29 -50 -6 -3 -28 -44 -51 -90
-23 -46 -45 -87 -50 -90 -5 -3 -23 -35 -40 -70 -17 -35 -35 -67 -40 -70 -5 -3
-23 -35 -40 -70 -17 -35 -35 -67 -40 -70 -5 -3 -23 -35 -40 -70 -17 -35 -35
-67 -40 -70 -5 -3 -21 -31 -36 -63 -15 -31 -33 -64 -40 -72 -20 -25 -84 -151
-84 -166 0 -12 35 -14 204 -14 126 0 207 4 211 10 9 14 1271 14 1280 0 4 -6
78 -10 190 -10 112 0 186 4 190 10 3 6 19 10 35 10 16 0 46 9 66 21 43 24 124
106 124 126 0 7 4 13 9 13 4 0 32 48 62 108 30 59 57 109 61 110 5 2 8 10 8
18 0 7 9 29 20 49 11 20 20 44 20 55 0 10 5 22 10 25 6 3 10 44 10 90 0 46 -4
87 -10 90 -5 3 -10 14 -10 24 0 23 -26 75 -45 91 -8 7 -15 18 -15 25 0 6 -9
20 -20 30 -11 10 -20 23 -20 30 0 7 -9 20 -20 30 -11 10 -20 23 -20 28 0 6 -7
19 -17 29 -9 10 -21 28 -27 40 -6 12 -16 23 -23 25 -12 4 -73 -53 -73 -69 0
-5 -9 -18 -20 -30 -11 -12 -20 -28 -20 -35 0 -7 -4 -13 -10 -13 -5 0 -10 -8
-10 -19 0 -10 -7 -24 -15 -31 -8 -7 -33 -49 -56 -94 -22 -44 -50 -95 -62 -113
-12 -17 -37 -57 -56 -87 -55 -91 -27 -87 -571 -84 l-475 3 -3 44 c-2 24 2 49
7 54 6 6 11 19 11 28 0 9 7 23 16 30 9 7 20 22 25 34 6 11 25 45 44 75 19 30
46 78 61 105 15 28 30 52 35 53 5 2 9 12 9 23 0 10 5 19 10 19 6 0 10 9 10 20
0 11 4 20 8 20 5 0 20 21 33 48 13 26 27 49 32 50 4 2 7 12 7 23 0 10 4 19 9
19 5 0 25 34 46 75 20 41 41 77 45 80 5 3 27 44 50 90 23 46 45 87 51 90 5 4
18 26 29 50 11 24 24 46 29 50 6 3 28 44 51 90 23 46 45 87 50 90 5 3 23 35
40 70 17 35 35 67 40 70 5 3 23 35 40 70 17 35 35 67 40 70 5 3 23 35 40 70
17 35 35 67 40 70 5 3 23 35 40 70 17 35 35 67 40 70 5 3 21 31 36 63 15 31
33 64 40 72 7 8 25 40 41 70 16 30 42 75 58 100 51 78 58 94 58 140 1 34 -7
58 -32 100 -19 30 -52 89 -74 130 -22 41 -46 82 -53 91 -8 8 -14 20 -14 25 0
5 -18 33 -40 62 -22 29 -40 57 -40 62 0 19 -26 10 -51 -17z"/>
<path d="M6832 7055 c-32 -17 -82 -66 -82 -80 0 -6 -11 -22 -25 -35 -14 -13
-25 -29 -25 -35 0 -7 -9 -20 -20 -30 -11 -10 -20 -23 -20 -30 0 -7 -9 -20 -20
-30 -11 -10 -20 -24 -20 -30 0 -7 -7 -18 -15 -25 -8 -6 -31 -45 -51 -86 -34
-69 -36 -80 -36 -166 0 -59 4 -94 11 -96 6 -2 11 -17 11 -33 0 -16 5 -29 10
-29 6 0 10 -6 10 -14 0 -15 37 -87 88 -172 16 -29 47 -86 67 -129 40 -83 38
-83 72 -15 4 8 18 31 31 50 13 19 32 53 42 76 11 22 26 47 35 54 8 7 15 17 15
22 0 6 10 23 21 40 18 24 80 140 133 245 6 13 16 23 22 23 5 0 20 9 32 20 17
16 35 20 95 20 104 0 107 -6 53 -114 -24 -48 -50 -95 -58 -104 -8 -9 -31 -52
-52 -94 -21 -43 -42 -80 -47 -83 -4 -3 -22 -35 -39 -70 -17 -35 -35 -67 -40
-70 -5 -3 -23 -35 -40 -70 -17 -35 -35 -67 -40 -70 -6 -4 -19 -26 -30 -50 -11
-24 -24 -46 -30 -50 -5 -3 -23 -34 -40 -69 -16 -35 -37 -69 -45 -76 -8 -7 -15
-18 -15 -25 0 -6 -8 -20 -19 -29 -18 -16 -20 -15 -42 21 -13 21 -31 55 -41 75
-10 20 -22 39 -27 43 -6 3 -28 44 -51 90 -23 46 -45 87 -50 90 -5 3 -23 35
-40 70 -17 35 -35 67 -40 70 -5 3 -23 35 -40 70 -17 35 -35 67 -40 70 -6 4
-19 26 -30 50 -11 24 -24 46 -29 50 -6 3 -28 44 -51 90 -23 46 -45 87 -51 90
-5 4 -18 26 -29 50 -11 24 -24 46 -29 50 -6 3 -28 44 -51 90 -23 47 -47 90
-53 97 -7 7 -27 43 -46 81 -19 37 -37 67 -40 67 -3 0 -12 14 -19 30 -20 45
-43 37 -71 -23 -13 -28 -32 -61 -41 -72 -9 -11 -24 -37 -34 -57 -9 -20 -21
-40 -26 -43 -5 -3 -23 -35 -40 -70 -17 -35 -35 -67 -41 -71 -6 -3 -14 -16 -20
-27 -5 -12 -13 -29 -19 -37 -27 -41 -90 -151 -90 -156 0 -3 -8 -18 -19 -32
-27 -38 -68 -111 -88 -154 -10 -21 -21 -38 -25 -38 -5 0 -8 -9 -8 -20 0 -11
-4 -20 -10 -20 -5 0 -10 -7 -10 -15 0 -9 -9 -25 -20 -37 -11 -12 -20 -28 -20
-35 0 -7 -4 -13 -10 -13 -5 0 -10 -9 -10 -20 0 -11 -4 -20 -10 -20 -5 0 -10
-7 -10 -15 0 -9 -9 -25 -20 -37 -11 -12 -20 -28 -20 -35 0 -7 -4 -13 -10 -13
-5 0 -10 -9 -10 -20 0 -11 -4 -20 -10 -20 -5 0 -10 -9 -10 -20 0 -11 -4 -20
-8 -20 -5 0 -20 -21 -33 -47 -13 -27 -27 -49 -31 -51 -5 -2 -8 -12 -8 -23 0
-10 -4 -19 -10 -19 -5 0 -10 -9 -10 -20 0 -11 -4 -20 -9 -20 -5 0 -25 -34 -46
-75 -20 -41 -40 -77 -45 -80 -5 -3 -32 -52 -60 -110 -28 -58 -55 -107 -60
-110 -12 -7 -40 -65 -40 -82 0 -10 37 -14 183 -15 269 -4 304 -3 334 12 56 28
114 94 154 177 22 45 44 85 49 88 4 3 25 40 46 83 21 42 44 85 52 95 18 20 33
46 61 104 12 23 25 45 31 48 5 3 17 23 26 43 10 20 25 46 34 57 10 11 23 35
31 53 8 17 20 32 27 32 18 0 42 -25 42 -44 0 -9 5 -16 10 -16 6 0 10 -8 10
-18 0 -10 9 -24 20 -32 11 -8 20 -22 20 -32 0 -10 5 -18 10 -18 6 0 10 -9 10
-20 0 -11 4 -20 9 -20 4 0 23 -30 42 -67 19 -38 39 -74 46 -80 6 -7 24 -39 39
-70 16 -32 34 -64 41 -71 6 -7 30 -50 53 -97 23 -46 45 -87 50 -90 5 -3 21
-31 36 -63 15 -31 39 -75 53 -97 14 -22 38 -65 54 -95 16 -30 35 -62 43 -71 8
-8 14 -19 14 -23 0 -5 14 -28 30 -53 17 -24 30 -48 30 -52 0 -4 9 -16 20 -26
11 -10 20 -22 20 -27 0 -5 21 -41 48 -80 26 -39 51 -79 57 -89 5 -11 15 -19
22 -19 12 0 63 71 63 87 0 3 6 14 14 22 8 9 27 41 43 71 16 30 40 73 54 95 14
22 38 66 53 97 15 32 32 60 37 63 5 4 18 26 29 50 11 24 24 46 30 50 5 3 23
35 40 70 17 35 35 67 40 70 5 3 27 44 50 90 23 46 45 87 50 90 5 3 23 35 40
70 17 35 36 70 43 77 7 7 25 39 41 71 15 31 33 63 40 70 6 6 24 37 39 67 29
58 59 112 67 120 3 3 16 28 30 55 13 28 32 62 42 77 18 26 48 78 102 180 14
26 30 49 36 53 5 3 10 15 10 26 0 10 3 19 8 19 4 0 23 30 42 68 19 37 38 69
41 72 3 3 21 34 40 70 19 36 39 71 46 78 6 7 30 50 53 97 23 46 45 87 50 90 5
3 23 35 40 70 17 35 35 67 40 70 6 4 19 25 30 49 10 23 26 49 35 56 8 7 15 19
15 26 0 20 -1333 19 -1368 -1z"/>
</g>
</svg>
